<?xml version="1.0" encoding="iso-8859-1"?>
<!-- Uploaded to: SVG Repo, www.svgrepo.com, Generator: SVG Repo Mixer Tools -->
<svg fill="#3C3C3C" height="640px" width="640px" version="1.1" id="Layer_1" xmlns="http://www.w3.org/2000/svg" xmlns:xlink="http://www.w3.org/1999/xlink" 
	 viewBox="0 0 512.204 512.204" xml:space="preserve">
<g transform="translate(1 1)">
	<g>
		<g>
			<path d="M398.288,389.712h-52.068c-5.207,0-8.678,3.471-8.678,8.678c0,5.207,3.471,8.678,8.678,8.678h52.068
				c5.207,0,8.678-3.471,8.678-8.678C406.966,393.184,403.495,389.712,398.288,389.712z"/>
			<path d="M320.187,459.136H198.695c-5.207,0-8.678,3.471-8.678,8.678s3.471,8.678,8.678,8.678h121.492
				c5.207,0,8.678-3.471,8.678-8.678S325.393,459.136,320.187,459.136z"/>
			<path d="M398.288,459.136h-43.39c-5.207,0-8.678,3.471-8.678,8.678s3.471,8.678,8.678,8.678h43.39
				c5.207,0,8.678-3.471,8.678-8.678S403.495,459.136,398.288,459.136z"/>
			<path d="M354.899,441.78h17.356c5.207,0,8.678-3.471,8.678-8.678s-3.471-8.678-8.678-8.678h-17.356
				c-5.207,0-8.678,3.471-8.678,8.678S349.692,441.78,354.899,441.78z"/>
			<path d="M146.627,407.068h26.034c5.207,0,8.678-3.471,8.678-8.678c0-5.207-3.471-8.678-8.678-8.678h-26.034
				c-5.207,0-8.678,3.471-8.678,8.678C137.949,403.597,141.421,407.068,146.627,407.068z"/>
			<path d="M163.983,459.136h-17.356c-5.207,0-8.678,3.471-8.678,8.678s3.471,8.678,8.678,8.678h17.356
				c5.207,0,8.678-3.471,8.678-8.678S169.19,459.136,163.983,459.136z"/>
			<path d="M320.187,424.424h-26.034c-5.207,0-8.678,3.471-8.678,8.678s3.471,8.678,8.678,8.678h26.034
				c5.207,0,8.678-3.471,8.678-8.678S325.393,424.424,320.187,424.424z"/>
			<path d="M207.373,407.068h104.136c5.207,0,8.678-3.471,8.678-8.678c0-5.207-3.471-8.678-8.678-8.678H207.373
				c-5.207,0-8.678,3.471-8.678,8.678C198.695,403.597,202.166,407.068,207.373,407.068z"/>
			<path d="M259.441,433.102c0-5.207-3.471-8.678-8.678-8.678h-78.102c-5.207,0-8.678,3.471-8.678,8.678s3.471,8.678,8.678,8.678
				h78.102C255.97,441.78,259.441,438.309,259.441,433.102z"/>
			<path d="M68.526,407.068c-5.207,0-8.678,3.471-8.678,8.678v34.712c0,5.207,3.471,8.678,8.678,8.678s8.678-3.471,8.678-8.678
				v-34.712C77.204,410.54,73.732,407.068,68.526,407.068z"/>
			<path d="M459.034,268.221h-23.164c-0.593-8.565-1.828-17.544-3.738-26.902c0-2.603-1.736-5.207-4.339-6.075
				c-2.603-0.868-5.207-0.868-7.81,0c-7.81,4.339-31.241,13.017-44.258,4.339c-7.81-5.207-12.149-16.488-11.281-34.712
				c0-6.075,3.471-18.224,13.017-28.637c27.769-31.241,26.902-80.705-0.868-113.681c-4.339-6.075-9.546-11.281-15.62-18.224
				c-1.736-2.603-5.207-3.471-7.81-2.603s-5.207,2.603-6.075,5.207c0,0-5.207,13.017-14.753,23.43
				c-7.81,8.678-18.224,7.81-25.166,4.339c-6.942-3.471-13.885-11.281-12.149-22.563c1.736-12.149,6.942-25.166,15.62-40.786
				c0.868-1.736,0.868-5.207,0-7.81c-1.736-2.603-4.339-4.339-6.942-4.339c-0.868,0-32.976-3.471-60.746,18.224
				c-18.224,13.885-28.637,37.315-26.034,61.614c0.868,12.149,2.603,22.563,6.075,31.241c0.868,3.471,1.736,7.81,0,12.149
				c-0.868,1.736-3.471,7.81-15.62,7.81c-0.868,0-1.736,0-1.736,0s-4.339,0.868-8.678-2.603c-4.339-4.339-6.942-12.149-6.942-23.431
				c0-3.471-1.736-6.075-4.339-7.81c-2.603-0.868-6.075-0.868-8.678,0.868c-1.736,0.868-29.505,21.695-29.505,52.068
				c0,20.827,12.149,39.919,38.183,58.142c5.207,2.603,21.695,14.753,21.695,26.902v0.868c0.868,3.471,0.868,13.885-4.339,19.959
				c-2.603,2.603-6.942,4.339-13.017,4.339c-0.868,0-0.868,0-1.736,0c-1.736,0-36.447,5.207-42.522-27.77
				c-0.868-3.471-3.471-6.075-6.942-6.942c-3.471,0-6.942,0.868-8.678,4.339c-0.484,1.451-9.861,17.732-14.915,39.22
				c-34.537-2.838-64.054,33.119-64.054,77.932c0,3.676,0.32,7.669,0.763,11.596C26.301,367.106,7.78,397.107,7.78,433.102
				c0,43.39,26.902,78.102,60.746,78.102h347.119c25.166,0,43.39-33.844,43.39-78.102c0-2.942-0.086-5.835-0.244-8.678h0.244
				c25.166,0,43.39-33.844,43.39-78.102S484.2,268.221,459.034,268.221z M190.885,276.031c13.017,0,20.827-5.207,25.166-10.414
				c10.414-12.149,9.546-29.505,8.678-32.976c0-24.298-26.902-39.919-29.505-41.654c-19.959-13.885-30.373-28.637-30.373-43.39
				c0-10.414,5.207-19.091,10.414-26.034c2.603,7.81,6.075,13.885,11.281,18.224c8.678,7.81,18.224,6.942,21.695,6.942
				c19.959,0,28.637-11.281,31.241-18.224c3.471-7.81,3.471-16.488,0-25.166c-2.603-7.81-4.339-16.488-5.207-26.902
				c-1.736-18.224,5.207-35.58,19.091-45.993c13.017-9.546,26.034-13.017,35.58-13.885c-6.075,12.149-9.546,23.431-11.281,33.844
				c-2.603,17.356,6.075,32.976,21.695,40.786c15.62,6.942,33.844,4.339,45.125-8.678c5.207-5.207,9.546-11.281,12.149-16.488
				c1.736,2.603,4.339,4.339,6.075,6.942c22.563,26.902,22.563,65.953,0.868,91.119c-10.414,12.149-17.356,26.902-17.356,39.919
				c0,24.298,6.075,40.786,19.959,49.464c16.488,10.414,38.183,5.207,51.2,0.868c4.339,32.976,0.868,59.01-12.149,77.234
				c-12.149,18.224-30.373,22.563-33.844,23.431H325.1c15.241-18.189,17.005-44.356,3.765-64.217l-43.39-64.217l-43.39,64.217
				c-14.27,20.146-12.299,46.788,3.554,64.217h-54.754c-6.276-1.292-12.077-2.902-17.411-4.822l0.055-0.385l-6.075-2.603
				c-29.505-12.149-41.654-35.58-36.447-67.688l0.868-7.81l-0.026-0.006c1.447-6.314,3.339-12.212,5.233-17.35
				C150.966,275.163,176.133,277.767,190.885,276.031z M256.838,300.329l28.637-42.522l26.902,42.522
				c9.546,13.885,7.81,32.976-3.471,44.258c-10.414,10.414-23.431,9.546-23.431,9.546h-0.868c-15.62,0-23.43-8.678-24.298-9.546
				C249.027,333.306,247.292,314.214,256.838,300.329z M111.916,285.577c-1.736,23.431,3.471,50.332,32.109,69.424H69.394
				c-0.868-2.603-0.868-6.075-0.868-8.678C68.526,312.479,87.617,285.577,111.916,285.577z M25.136,433.102
				c0-29.593,14.597-53.876,34.507-59.51l3.676-0.368c0.836-0.418,1.672-0.632,2.507-0.744c0.893-0.074,1.791-0.124,2.699-0.124
				c24.298,0,43.39,26.902,43.39,60.746c0,33.844-19.091,60.746-43.39,60.746C44.227,493.848,25.136,466.946,25.136,433.102z
				 M415.644,493.848H106.896c11.962-12.469,20.085-30.708,21.951-51.544c0.01-0.11,0.022-0.218,0.032-0.328
				c0.107-1.235,0.189-2.48,0.251-3.732c0.013-0.257,0.034-0.511,0.045-0.769c0.061-1.447,0.097-2.904,0.097-4.372
				s-0.037-2.925-0.097-4.372c-0.011-0.258-0.032-0.512-0.045-0.769c-0.062-1.252-0.144-2.497-0.251-3.732
				c-0.01-0.11-0.022-0.218-0.032-0.328c-1.866-20.837-9.989-39.075-21.951-51.544h62.295h19.091c0.868,0,0.868,0,1.736,0h94.59
				h2.603h85.044h0.868h0.868h41.654c0.342,0,0.686,0.027,1.03,0.068c0.127,0.015,0.255,0.039,0.382,0.06
				c0.219,0.035,0.438,0.077,0.658,0.129c0.147,0.034,0.294,0.072,0.442,0.114c0.224,0.063,0.448,0.136,0.672,0.216
				c0.122,0.043,0.244,0.082,0.366,0.13c11.149,4.392,22.484,28.665,22.484,60.029C441.678,467.814,427.794,493.848,415.644,493.848
				z M459.034,407.068h-2.272c-5.258-28.859-19.244-49.299-37.366-51.789c-0.202-0.029-0.405-0.053-0.607-0.077
				c-0.376-0.043-0.751-0.089-1.131-0.116c-0.667-0.052-1.338-0.085-2.014-0.085h-7.81c13.885-12.149,27.769-33.844,28.637-69.424
				h22.563c12.149,0,26.034,26.034,26.034,60.746S471.183,407.068,459.034,407.068z"/>
			<path d="M146.627,42.594c5.207,0,8.678-3.471,8.678-8.678s-3.471-8.678-8.678-8.678c-5.207,0-8.678,3.471-8.678,8.678
				S141.421,42.594,146.627,42.594z"/>
			<path d="M467.712,155.407c5.207,0,8.678-3.471,8.678-8.678c0-5.207-3.471-8.678-8.678-8.678s-8.678,3.471-8.678,8.678
				C459.034,151.936,462.505,155.407,467.712,155.407z"/>
			<path d="M33.814,224.831c5.207,0,8.678-3.471,8.678-8.678s-3.471-8.678-8.678-8.678s-8.678,3.471-8.678,8.678
				S28.607,224.831,33.814,224.831z"/>
		</g>
	</g>
</g>
</svg>